# WaveFront *.obj file (generated by Autodesk ATF)

mtllib base brazo v2.mtl

g Body3

v -10.000000 -0.000000 10.600000
v -9.882804 1.526493 10.600000
v -9.533964 3.017206 10.600000
v -8.961656 4.437198 10.600000
v -8.179294 5.753187 10.600000
v -7.205216 6.934325 10.600000
v -6.062254 7.952929 10.600000
v -4.777198 8.785123 10.600000
v -3.380169 9.411400 10.600000
v -1.903911 9.817083 10.600000
v -0.383027 9.992662 10.600000
v 1.146834 9.934021 10.600000
v 2.649815 9.642535 10.600000
v 4.090686 9.125036 10.600000
v 5.435676 8.393654 10.600000
v 6.653257 7.465532 10.600000
v 7.714892 6.362424 10.600000
v 8.595696 5.110187 10.600000
v 9.275025 3.738171 10.600000
v 9.736954 2.278535 10.600000
v 9.970658 0.765493 10.600000
v 9.970658 -0.765493 10.600000
v 9.736954 -2.278535 10.600000
v 9.275025 -3.738171 10.600000
v 8.595696 -5.110187 10.600000
v 7.714892 -6.362424 10.600000
v 6.653257 -7.465532 10.600000
v 5.435676 -8.393654 10.600000
v 4.090686 -9.125036 10.600000
v 2.649815 -9.642535 10.600000
v 1.146834 -9.934021 10.600000
v -0.383027 -9.992662 10.600000
v -1.903911 -9.817083 10.600000
v -3.380169 -9.411400 10.600000
v -4.777198 -8.785123 10.600000
v -6.062254 -7.952929 10.600000
v -7.205216 -6.934325 10.600000
v -8.179294 -5.753187 10.600000
v -8.961656 -4.437198 10.600000
v -9.533964 -3.017206 10.600000
v -9.882804 -1.526493 10.600000
v -10.000000 -0.000000 0.000000
v -9.882804 -1.526493 0.000000
v -9.533964 -3.017206 0.000000
v -8.961656 -4.437198 0.000000
v -8.179294 -5.753187 0.000000
v -7.205216 -6.934325 0.000000
v -6.062254 -7.952929 0.000000
v -4.777198 -8.785123 0.000000
v -3.380169 -9.411400 0.000000
v -1.903911 -9.817083 0.000000
v -0.383027 -9.992662 0.000000
v 1.146834 -9.934021 0.000000
v 2.649815 -9.642535 0.000000
v 4.090686 -9.125036 0.000000
v 5.435676 -8.393654 0.000000
v 6.653257 -7.465532 0.000000
v 7.714892 -6.362424 0.000000
v 8.595696 -5.110187 0.000000
v 9.275025 -3.738171 0.000000
v 9.736954 -2.278535 0.000000
v 9.970658 -0.765493 0.000000
v 9.970658 0.765493 0.000000
v 9.736954 2.278535 0.000000
v 9.275025 3.738171 0.000000
v 8.595696 5.110187 0.000000
v 7.714892 6.362424 0.000000
v 6.653257 7.465532 0.000000
v 5.435676 8.393654 0.000000
v 4.090686 9.125036 0.000000
v 2.649815 9.642535 0.000000
v 1.146834 9.934021 0.000000
v -0.383027 9.992662 0.000000
v -1.903911 9.817083 0.000000
v -3.380169 9.411400 0.000000
v -4.777198 8.785123 0.000000
v -6.062254 7.952929 0.000000
v -7.205216 6.934325 0.000000
v -8.179294 5.753187 0.000000
v -8.961656 4.437198 0.000000
v -9.533964 3.017206 0.000000
v -9.882804 1.526493 0.000000
v -0.014671 -0.000000 10.600000
v -0.014671 -0.000000 0.000000
vt -10.600000 29.883442 0.000000
vt -0.000000 29.883442 0.000000
vt -10.600000 31.415927 0.000000
vt -0.000000 31.415927 0.000000
vt -10.600000 -31.415927 0.000000
vt -0.000000 -31.415927 0.000000
vt -10.600000 -29.883442 0.000000
vt -0.000000 -29.883442 0.000000
vt -10.600000 -28.350958 0.000000
vt -0.000000 -28.350958 0.000000
vt -10.600000 -26.818474 0.000000
vt -0.000000 -26.818474 0.000000
vt -10.600000 -25.285990 0.000000
vt -0.000000 -25.285990 0.000000
vt -10.600000 -23.753505 0.000000
vt -0.000000 -23.753505 0.000000
vt -10.600000 -22.221021 0.000000
vt -0.000000 -22.221021 0.000000
vt -10.600000 -20.688537 0.000000
vt -0.000000 -20.688537 0.000000
vt -10.600000 -19.156053 0.000000
vt -0.000000 -19.156053 0.000000
vt -10.600000 -17.623569 0.000000
vt -0.000000 -17.623569 0.000000
vt -10.600000 -16.091084 0.000000
vt -0.000000 -16.091084 0.000000
vt -10.600000 -14.558600 0.000000
vt -0.000000 -14.558600 0.000000
vt -10.600000 -13.026116 0.000000
vt -0.000000 -13.026116 0.000000
vt -10.600000 -11.493632 0.000000
vt -0.000000 -11.493632 0.000000
vt -10.600000 -9.961147 0.000000
vt -0.000000 -9.961147 0.000000
vt -10.600000 -8.428663 0.000000
vt -0.000000 -8.428663 0.000000
vt -10.600000 -6.896179 0.000000
vt -0.000000 -6.896179 0.000000
vt -10.600000 -5.363695 0.000000
vt -0.000000 -5.363695 0.000000
vt -10.600000 -3.831211 0.000000
vt -0.000000 -3.831211 0.000000
vt -10.600000 -2.298726 0.000000
vt -0.000000 -2.298726 0.000000
vt -10.600000 -0.766242 0.000000
vt -0.000000 -0.766242 0.000000
vt -10.600000 0.766242 0.000000
vt -0.000000 0.766242 0.000000
vt -10.600000 2.298726 0.000000
vt -0.000000 2.298726 0.000000
vt -10.600000 3.831211 0.000000
vt -0.000000 3.831211 0.000000
vt -10.600000 5.363695 0.000000
vt -0.000000 5.363695 0.000000
vt -10.600000 6.896179 0.000000
vt -0.000000 6.896179 0.000000
vt -10.600000 8.428663 0.000000
vt -0.000000 8.428663 0.000000
vt -10.600000 9.961147 0.000000
vt -0.000000 9.961147 0.000000
vt -10.600000 11.493632 0.000000
vt -0.000000 11.493632 0.000000
vt -10.600000 13.026116 0.000000
vt -0.000000 13.026116 0.000000
vt -10.600000 14.558600 0.000000
vt -0.000000 14.558600 0.000000
vt -10.600000 16.091084 0.000000
vt -0.000000 16.091084 0.000000
vt -10.600000 17.623569 0.000000
vt -0.000000 17.623569 0.000000
vt -10.600000 19.156053 0.000000
vt -0.000000 19.156053 0.000000
vt -10.600000 20.688537 0.000000
vt -0.000000 20.688537 0.000000
vt -10.600000 22.221021 0.000000
vt -0.000000 22.221021 0.000000
vt -10.600000 23.753505 0.000000
vt -0.000000 23.753505 0.000000
vt -10.600000 25.285990 0.000000
vt -0.000000 25.285990 0.000000
vt -10.600000 26.818474 0.000000
vt -0.000000 26.818474 0.000000
vt -10.600000 28.350958 0.000000
vt -0.000000 28.350958 0.000000
vt -9.882804 1.526493 0.000000
vt -10.000000 -0.000000 0.000000
vt -0.014671 -0.000000 0.000000
vt -9.882804 -1.526493 0.000000
vt -9.533964 -3.017206 0.000000
vt -8.961656 -4.437198 0.000000
vt -8.179294 -5.753187 0.000000
vt -7.205216 -6.934325 0.000000
vt -6.062254 -7.952929 0.000000
vt -4.777198 -8.785123 0.000000
vt -3.380169 -9.411400 0.000000
vt -1.903911 -9.817083 0.000000
vt -0.383027 -9.992662 0.000000
vt 1.146834 -9.934021 0.000000
vt 2.649815 -9.642535 0.000000
vt 4.090686 -9.125036 0.000000
vt 5.435676 -8.393654 0.000000
vt 6.653257 -7.465532 0.000000
vt 7.714892 -6.362424 0.000000
vt 8.595696 -5.110187 0.000000
vt 9.275025 -3.738171 0.000000
vt 9.736954 -2.278535 0.000000
vt 9.970658 -0.765493 0.000000
vt 9.970658 0.765493 0.000000
vt 9.736954 2.278535 0.000000
vt 9.275025 3.738171 0.000000
vt 8.595696 5.110187 0.000000
vt 7.714892 6.362424 0.000000
vt 6.653257 7.465532 0.000000
vt 5.435676 8.393654 0.000000
vt 4.090686 9.125036 0.000000
vt 2.649815 9.642535 0.000000
vt 1.146834 9.934021 0.000000
vt -0.383027 9.992662 0.000000
vt -1.903911 9.817083 0.000000
vt -3.380169 9.411400 0.000000
vt -4.777198 8.785123 0.000000
vt -6.062254 7.952929 0.000000
vt -7.205216 6.934325 0.000000
vt -8.179294 5.753187 0.000000
vt -8.961656 4.437198 0.000000
vt -9.533964 3.017206 0.000000
vt 9.882804 -1.526493 0.000000
vt 10.000000 -0.000000 0.000000
vt 0.014671 -0.000000 0.000000
vt 9.882804 1.526493 0.000000
vt 9.533964 3.017206 0.000000
vt 8.961656 4.437198 0.000000
vt 8.179294 5.753187 0.000000
vt 7.205216 6.934325 0.000000
vt 6.062254 7.952929 0.000000
vt 4.777198 8.785123 0.000000
vt 3.380169 9.411400 0.000000
vt 1.903911 9.817083 0.000000
vt 0.383027 9.992662 0.000000
vt -1.146834 9.934021 0.000000
vt -2.649815 9.642535 0.000000
vt -4.090686 9.125036 0.000000
vt -5.435676 8.393654 0.000000
vt -6.653257 7.465532 0.000000
vt -7.714892 6.362424 0.000000
vt -8.595696 5.110187 0.000000
vt -9.275025 3.738171 0.000000
vt -9.736954 2.278535 0.000000
vt -9.970658 0.765493 0.000000
vt -9.970658 -0.765493 0.000000
vt -9.736954 -2.278535 0.000000
vt -9.275025 -3.738171 0.000000
vt -8.595696 -5.110187 0.000000
vt -7.714892 -6.362424 0.000000
vt -6.653257 -7.465532 0.000000
vt -5.435676 -8.393654 0.000000
vt -4.090686 -9.125036 0.000000
vt -2.649815 -9.642535 0.000000
vt -1.146834 -9.934021 0.000000
vt 0.383027 -9.992662 0.000000
vt 1.903911 -9.817083 0.000000
vt 3.380169 -9.411400 0.000000
vt 4.777198 -8.785123 0.000000
vt 6.062254 -7.952929 0.000000
vt 7.205216 -6.934325 0.000000
vt 8.179294 -5.753187 0.000000
vt 8.961656 -4.437198 0.000000
vt 9.533964 -3.017206 0.000000
vn -0.988280 0.152649 -0.000000
vn -0.988280 0.152649 -0.000000
vn -1.000000 0.000000 -0.000000
vn -1.000000 0.000000 -0.000000
vn -0.988280 -0.152649 0.000000
vn -0.988280 -0.152649 0.000000
vn -0.953396 -0.301721 0.000000
vn -0.953396 -0.301721 0.000000
vn -0.896166 -0.443720 0.000000
vn -0.896166 -0.443720 0.000000
vn -0.817929 -0.575319 0.000000
vn -0.817929 -0.575319 0.000000
vn -0.720522 -0.693433 0.000000
vn -0.720522 -0.693433 0.000000
vn -0.606225 -0.795293 0.000000
vn -0.606225 -0.795293 0.000000
vn -0.477720 -0.878512 0.000000
vn -0.477720 -0.878512 0.000000
vn -0.338017 -0.941140 0.000000
vn -0.338017 -0.941140 0.000000
vn -0.190391 -0.981708 0.000000
vn -0.190391 -0.981708 0.000000
vn -0.038303 -0.999266 0.000000
vn -0.038303 -0.999266 0.000000
vn 0.114683 -0.993402 -0.000000
vn 0.114683 -0.993402 -0.000000
vn 0.264982 -0.964253 -0.000000
vn 0.264982 -0.964253 -0.000000
vn 0.409069 -0.912504 -0.000000
vn 0.409069 -0.912504 -0.000000
vn 0.543568 -0.839365 -0.000000
vn 0.543568 -0.839365 -0.000000
vn 0.665326 -0.746553 -0.000000
vn 0.665326 -0.746553 -0.000000
vn 0.771489 -0.636242 -0.000000
vn 0.771489 -0.636242 -0.000000
vn 0.859570 -0.511019 -0.000000
vn 0.859570 -0.511019 -0.000000
vn 0.927502 -0.373817 -0.000000
vn 0.927502 -0.373817 -0.000000
vn 0.973695 -0.227854 -0.000000
vn 0.973695 -0.227854 -0.000000
vn 0.997066 -0.076549 -0.000000
vn 0.997066 -0.076549 -0.000000
vn 0.997066 0.076549 -0.000000
vn 0.997066 0.076549 -0.000000
vn 0.973695 0.227854 -0.000000
vn 0.973695 0.227854 -0.000000
vn 0.927502 0.373817 -0.000000
vn 0.927502 0.373817 -0.000000
vn 0.859570 0.511019 -0.000000
vn 0.859570 0.511019 -0.000000
vn 0.771489 0.636242 -0.000000
vn 0.771489 0.636242 -0.000000
vn 0.665326 0.746553 -0.000000
vn 0.665326 0.746553 -0.000000
vn 0.543568 0.839365 -0.000000
vn 0.543568 0.839365 -0.000000
vn 0.409069 0.912504 -0.000000
vn 0.409069 0.912504 -0.000000
vn 0.264982 0.964253 -0.000000
vn 0.264982 0.964253 -0.000000
vn 0.114683 0.993402 -0.000000
vn 0.114683 0.993402 -0.000000
vn -0.038303 0.999266 -0.000000
vn -0.038303 0.999266 -0.000000
vn -0.190391 0.981708 -0.000000
vn -0.190391 0.981708 -0.000000
vn -0.338017 0.941140 -0.000000
vn -0.338017 0.941140 -0.000000
vn -0.477720 0.878512 -0.000000
vn -0.477720 0.878512 -0.000000
vn -0.606225 0.795293 -0.000000
vn -0.606225 0.795293 -0.000000
vn -0.720522 0.693433 -0.000000
vn -0.720522 0.693433 -0.000000
vn -0.817929 0.575319 -0.000000
vn -0.817929 0.575319 -0.000000
vn -0.896166 0.443720 -0.000000
vn -0.896166 0.443720 -0.000000
vn -0.953396 0.301721 -0.000000
vn -0.953396 0.301721 -0.000000
vn 0.000000 0.000000 1.000000
vn 0.000000 0.000000 1.000000
vn 0.000000 0.000000 1.000000
vn 0.000000 0.000000 1.000000
vn 0.000000 0.000000 1.000000
vn 0.000000 0.000000 1.000000
vn 0.000000 0.000000 1.000000
vn 0.000000 0.000000 1.000000
vn 0.000000 0.000000 1.000000
vn 0.000000 0.000000 1.000000
vn 0.000000 0.000000 1.000000
vn 0.000000 0.000000 1.000000
vn 0.000000 0.000000 1.000000
vn 0.000000 0.000000 1.000000
vn 0.000000 0.000000 1.000000
vn 0.000000 0.000000 1.000000
vn 0.000000 0.000000 1.000000
vn 0.000000 0.000000 1.000000
vn 0.000000 0.000000 1.000000
vn 0.000000 0.000000 1.000000
vn 0.000000 0.000000 1.000000
vn 0.000000 0.000000 1.000000
vn 0.000000 0.000000 1.000000
vn 0.000000 0.000000 1.000000
vn 0.000000 0.000000 1.000000
vn 0.000000 0.000000 1.000000
vn 0.000000 0.000000 1.000000
vn 0.000000 0.000000 1.000000
vn 0.000000 0.000000 1.000000
vn 0.000000 0.000000 1.000000
vn 0.000000 0.000000 1.000000
vn 0.000000 0.000000 1.000000
vn 0.000000 0.000000 1.000000
vn 0.000000 0.000000 1.000000
vn 0.000000 0.000000 1.000000
vn 0.000000 0.000000 1.000000
vn 0.000000 0.000000 1.000000
vn 0.000000 0.000000 1.000000
vn 0.000000 0.000000 1.000000
vn 0.000000 0.000000 1.000000
vn 0.000000 0.000000 1.000000
vn 0.000000 0.000000 1.000000
vn -0.000000 -0.000000 -1.000000
vn -0.000000 -0.000000 -1.000000
vn -0.000000 -0.000000 -1.000000
vn -0.000000 -0.000000 -1.000000
vn -0.000000 -0.000000 -1.000000
vn -0.000000 -0.000000 -1.000000
vn -0.000000 -0.000000 -1.000000
vn -0.000000 -0.000000 -1.000000
vn -0.000000 -0.000000 -1.000000
vn -0.000000 -0.000000 -1.000000
vn -0.000000 -0.000000 -1.000000
vn -0.000000 -0.000000 -1.000000
vn -0.000000 -0.000000 -1.000000
vn -0.000000 -0.000000 -1.000000
vn -0.000000 -0.000000 -1.000000
vn -0.000000 -0.000000 -1.000000
vn -0.000000 -0.000000 -1.000000
vn -0.000000 -0.000000 -1.000000
vn -0.000000 -0.000000 -1.000000
vn -0.000000 -0.000000 -1.000000
vn -0.000000 -0.000000 -1.000000
vn -0.000000 -0.000000 -1.000000
vn -0.000000 -0.000000 -1.000000
vn -0.000000 -0.000000 -1.000000
vn -0.000000 -0.000000 -1.000000
vn -0.000000 -0.000000 -1.000000
vn -0.000000 -0.000000 -1.000000
vn -0.000000 -0.000000 -1.000000
vn -0.000000 -0.000000 -1.000000
vn -0.000000 -0.000000 -1.000000
vn -0.000000 -0.000000 -1.000000
vn -0.000000 -0.000000 -1.000000
vn -0.000000 -0.000000 -1.000000
vn -0.000000 -0.000000 -1.000000
vn -0.000000 -0.000000 -1.000000
vn -0.000000 -0.000000 -1.000000
vn -0.000000 -0.000000 -1.000000
vn -0.000000 -0.000000 -1.000000
vn -0.000000 -0.000000 -1.000000
vn -0.000000 -0.000000 -1.000000
vn -0.000000 -0.000000 -1.000000
vn -0.000000 -0.000000 -1.000000
usemtl Steel_-_Satin
f 2/1/1 82/2/2 1/3/3
f 1/3/3 82/2/2 42/4/4
f 1/5/3 42/6/4 41/7/5
f 41/7/5 42/6/4 43/8/6
f 41/7/5 43/8/6 40/9/7
f 40/9/7 43/8/6 44/10/8
f 40/9/7 44/10/8 39/11/9
f 39/11/9 44/10/8 45/12/10
f 39/11/9 45/12/10 38/13/11
f 38/13/11 45/12/10 46/14/12
f 38/13/11 46/14/12 37/15/13
f 37/15/13 46/14/12 47/16/14
f 37/15/13 47/16/14 36/17/15
f 36/17/15 47/16/14 48/18/16
f 36/17/15 48/18/16 35/19/17
f 35/19/17 48/18/16 49/20/18
f 35/19/17 49/20/18 34/21/19
f 34/21/19 49/20/18 50/22/20
f 34/21/19 50/22/20 33/23/21
f 33/23/21 50/22/20 51/24/22
f 33/23/21 51/24/22 32/25/23
f 32/25/23 51/24/22 52/26/24
f 32/25/23 52/26/24 31/27/25
f 31/27/25 52/26/24 53/28/26
f 31/27/25 53/28/26 30/29/27
f 30/29/27 53/28/26 54/30/28
f 30/29/27 54/30/28 29/31/29
f 29/31/29 54/30/28 55/32/30
f 29/31/29 55/32/30 28/33/31
f 28/33/31 55/32/30 56/34/32
f 28/33/31 56/34/32 27/35/33
f 27/35/33 56/34/32 57/36/34
f 27/35/33 57/36/34 26/37/35
f 26/37/35 57/36/34 58/38/36
f 26/37/35 58/38/36 25/39/37
f 25/39/37 58/38/36 59/40/38
f 25/39/37 59/40/38 24/41/39
f 24/41/39 59/40/38 60/42/40
f 24/41/39 60/42/40 23/43/41
f 23/43/41 60/42/40 61/44/42
f 23/43/41 61/44/42 22/45/43
f 22/45/43 61/44/42 62/46/44
f 22/45/43 62/46/44 21/47/45
f 21/47/45 62/46/44 63/48/46
f 21/47/45 63/48/46 20/49/47
f 20/49/47 63/48/46 64/50/48
f 20/49/47 64/50/48 19/51/49
f 19/51/49 64/50/48 65/52/50
f 19/51/49 65/52/50 18/53/51
f 18/53/51 65/52/50 66/54/52
f 18/53/51 66/54/52 17/55/53
f 17/55/53 66/54/52 67/56/54
f 17/55/53 67/56/54 16/57/55
f 16/57/55 67/56/54 68/58/56
f 16/57/55 68/58/56 15/59/57
f 15/59/57 68/58/56 69/60/58
f 15/59/57 69/60/58 14/61/59
f 14/61/59 69/60/58 70/62/60
f 14/61/59 70/62/60 13/63/61
f 13/63/61 70/62/60 71/64/62
f 13/63/61 71/64/62 12/65/63
f 12/65/63 71/64/62 72/66/64
f 12/65/63 72/66/64 11/67/65
f 11/67/65 72/66/64 73/68/66
f 11/67/65 73/68/66 10/69/67
f 10/69/67 73/68/66 74/70/68
f 10/69/67 74/70/68 9/71/69
f 9/71/69 74/70/68 75/72/70
f 9/71/69 75/72/70 8/73/71
f 8/73/71 75/72/70 76/74/72
f 8/73/71 76/74/72 7/75/73
f 7/75/73 76/74/72 77/76/74
f 7/75/73 77/76/74 6/77/75
f 6/77/75 77/76/74 78/78/76
f 6/77/75 78/78/76 5/79/77
f 5/79/77 78/78/76 79/80/78
f 5/79/77 79/80/78 4/81/79
f 4/81/79 79/80/78 80/82/80
f 4/81/79 80/82/80 3/83/81
f 3/83/81 80/82/80 81/84/82
f 3/83/81 81/84/82 2/1/1
f 2/1/1 81/84/82 82/2/2
f 2/85/83 1/86/84 83/87/85
f 83/87/85 1/86/84 41/88/86
f 83/87/85 41/88/86 40/89/87
f 40/89/87 39/90/88 83/87/85
f 83/87/85 39/90/88 38/91/89
f 83/87/85 38/91/89 37/92/90
f 37/92/90 36/93/91 83/87/85
f 83/87/85 36/93/91 35/94/92
f 83/87/85 35/94/92 34/95/93
f 34/95/93 33/96/94 83/87/85
f 83/87/85 33/96/94 32/97/95
f 83/87/85 32/97/95 31/98/96
f 31/98/96 30/99/97 83/87/85
f 83/87/85 30/99/97 29/100/98
f 83/87/85 29/100/98 28/101/99
f 28/101/99 27/102/100 83/87/85
f 83/87/85 27/102/100 26/103/101
f 83/87/85 26/103/101 25/104/102
f 25/104/102 24/105/103 83/87/85
f 83/87/85 24/105/103 23/106/104
f 83/87/85 23/106/104 22/107/105
f 22/107/105 21/108/106 83/87/85
f 83/87/85 21/108/106 20/109/107
f 83/87/85 20/109/107 19/110/108
f 19/110/108 18/111/109 83/87/85
f 83/87/85 18/111/109 17/112/110
f 83/87/85 17/112/110 16/113/111
f 16/113/111 15/114/112 83/87/85
f 83/87/85 15/114/112 14/115/113
f 83/87/85 14/115/113 13/116/114
f 13/116/114 12/117/115 83/87/85
f 83/87/85 12/117/115 11/118/116
f 83/87/85 11/118/116 10/119/117
f 10/119/117 9/120/118 83/87/85
f 83/87/85 9/120/118 8/121/119
f 83/87/85 8/121/119 7/122/120
f 7/122/120 6/123/121 83/87/85
f 83/87/85 6/123/121 5/124/122
f 83/87/85 5/124/122 4/125/123
f 4/125/123 3/126/124 83/87/85
f 83/87/85 3/126/124 2/85/83
f 43/127/125 42/128/126 84/129/127
f 84/129/127 42/128/126 82/130/128
f 84/129/127 82/130/128 81/131/129
f 81/131/129 80/132/130 84/129/127
f 84/129/127 80/132/130 79/133/131
f 84/129/127 79/133/131 78/134/132
f 78/134/132 77/135/133 84/129/127
f 84/129/127 77/135/133 76/136/134
f 84/129/127 76/136/134 75/137/135
f 75/137/135 74/138/136 84/129/127
f 84/129/127 74/138/136 73/139/137
f 84/129/127 73/139/137 72/140/138
f 72/140/138 71/141/139 84/129/127
f 84/129/127 71/141/139 70/142/140
f 84/129/127 70/142/140 69/143/141
f 69/143/141 68/144/142 84/129/127
f 84/129/127 68/144/142 67/145/143
f 84/129/127 67/145/143 66/146/144
f 66/146/144 65/147/145 84/129/127
f 84/129/127 65/147/145 64/148/146
f 84/129/127 64/148/146 63/149/147
f 63/149/147 62/150/148 84/129/127
f 84/129/127 62/150/148 61/151/149
f 84/129/127 61/151/149 60/152/150
f 60/152/150 59/153/151 84/129/127
f 84/129/127 59/153/151 58/154/152
f 84/129/127 58/154/152 57/155/153
f 57/155/153 56/156/154 84/129/127
f 84/129/127 56/156/154 55/157/155
f 84/129/127 55/157/155 54/158/156
f 54/158/156 53/159/157 84/129/127
f 84/129/127 53/159/157 52/160/158
f 84/129/127 52/160/158 51/161/159
f 51/161/159 50/162/160 84/129/127
f 84/129/127 50/162/160 49/163/161
f 84/129/127 49/163/161 48/164/162
f 48/164/162 47/165/163 84/129/127
f 84/129/127 47/165/163 46/166/164
f 84/129/127 46/166/164 45/167/165
f 45/167/165 44/168/166 84/129/127
f 84/129/127 44/168/166 43/127/125
# 84 vertices
# 168 texture params
# 166 normals
# 164 facets

# 1 groups
