# WaveFront *.obj file (generated by Autodesk ATF)

mtllib link hombro-codo v1.mtl

g Body1

v -2.500000 -0.000000 11.000000
v -2.448825 0.503246 11.000000
v -2.297395 0.985890 11.000000
v -2.051909 1.428171 11.000000
v -1.722417 1.811982 11.000000
v -1.322410 2.121611 11.000000
v -0.868263 2.344380 11.000000
v -0.378569 2.471171 11.000000
v 0.126623 2.496791 11.000000
v 0.626631 2.420193 11.000000
v 1.100985 2.244511 11.000000
v 1.530265 1.976939 11.000000
v 1.896895 1.628431 11.000000
v 2.185867 1.213255 11.000000
v 2.385348 0.748408 11.000000
v 2.487173 0.252921 11.000000
v 2.487173 -0.252921 11.000000
v 2.385348 -0.748408 11.000000
v 2.185867 -1.213255 11.000000
v 1.896895 -1.628431 11.000000
v 1.530265 -1.976939 11.000000
v 1.100985 -2.244511 11.000000
v 0.626631 -2.420193 11.000000
v 0.126623 -2.496791 11.000000
v -0.378569 -2.471171 11.000000
v -0.868263 -2.344380 11.000000
v -1.322410 -2.121611 11.000000
v -1.722417 -1.811982 11.000000
v -2.051909 -1.428171 11.000000
v -2.297395 -0.985890 11.000000
v -2.448825 -0.503246 11.000000
v -2.500000 -0.000000 0.000000
v -2.448825 -0.503246 0.000000
v -2.297395 -0.985890 0.000000
v -2.051909 -1.428171 0.000000
v -1.722417 -1.811982 0.000000
v -1.322410 -2.121611 0.000000
v -0.868263 -2.344380 0.000000
v -0.378569 -2.471171 0.000000
v 0.126623 -2.496791 0.000000
v 0.626631 -2.420193 0.000000
v 1.100985 -2.244511 0.000000
v 1.530265 -1.976939 0.000000
v 1.896895 -1.628431 0.000000
v 2.185867 -1.213255 0.000000
v 2.385348 -0.748408 0.000000
v 2.487173 -0.252921 0.000000
v 2.487173 0.252921 0.000000
v 2.385348 0.748408 0.000000
v 2.185867 1.213255 0.000000
v 1.896895 1.628431 0.000000
v 1.530265 1.976939 0.000000
v 1.100985 2.244511 0.000000
v 0.626631 2.420193 0.000000
v 0.126623 2.496791 0.000000
v -0.378569 2.471171 0.000000
v -0.868263 2.344380 0.000000
v -1.322410 2.121611 0.000000
v -1.722417 1.811982 0.000000
v -2.051909 1.428171 0.000000
v -2.297395 0.985890 0.000000
v -2.448825 0.503246 0.000000
vt -11.000000 7.347273 0.000000
vt -0.000000 7.347273 0.000000
vt -11.000000 7.853982 0.000000
vt -0.000000 7.853982 0.000000
vt -11.000000 -7.853982 0.000000
vt -0.000000 -7.853982 0.000000
vt -11.000000 -7.347273 0.000000
vt -0.000000 -7.347273 0.000000
vt -11.000000 -6.840565 0.000000
vt -0.000000 -6.840565 0.000000
vt -11.000000 -6.333856 0.000000
vt -0.000000 -6.333856 0.000000
vt -11.000000 -5.827148 0.000000
vt -0.000000 -5.827148 0.000000
vt -11.000000 -5.320439 0.000000
vt -0.000000 -5.320439 0.000000
vt -11.000000 -4.813731 0.000000
vt -0.000000 -4.813731 0.000000
vt -11.000000 -4.307022 0.000000
vt -0.000000 -4.307022 0.000000
vt -11.000000 -3.800314 0.000000
vt -0.000000 -3.800314 0.000000
vt -11.000000 -3.293605 0.000000
vt -0.000000 -3.293605 0.000000
vt -11.000000 -2.786897 0.000000
vt -0.000000 -2.786897 0.000000
vt -11.000000 -2.280188 0.000000
vt -0.000000 -2.280188 0.000000
vt -11.000000 -1.773480 0.000000
vt -0.000000 -1.773480 0.000000
vt -11.000000 -1.266771 0.000000
vt -0.000000 -1.266771 0.000000
vt -11.000000 -0.760063 0.000000
vt -0.000000 -0.760063 0.000000
vt -11.000000 -0.253354 0.000000
vt -0.000000 -0.253354 0.000000
vt -11.000000 0.253354 0.000000
vt -0.000000 0.253354 0.000000
vt -11.000000 0.760063 0.000000
vt -0.000000 0.760063 0.000000
vt -11.000000 1.266771 0.000000
vt -0.000000 1.266771 0.000000
vt -11.000000 1.773480 0.000000
vt -0.000000 1.773480 0.000000
vt -11.000000 2.280188 0.000000
vt -0.000000 2.280188 0.000000
vt -11.000000 2.786897 0.000000
vt -0.000000 2.786897 0.000000
vt -11.000000 3.293605 0.000000
vt -0.000000 3.293605 0.000000
vt -11.000000 3.800314 0.000000
vt -0.000000 3.800314 0.000000
vt -11.000000 4.307022 0.000000
vt -0.000000 4.307022 0.000000
vt -11.000000 4.813731 0.000000
vt -0.000000 4.813731 0.000000
vt -11.000000 5.320439 0.000000
vt -0.000000 5.320439 0.000000
vt -11.000000 5.827148 0.000000
vt -0.000000 5.827148 0.000000
vt -11.000000 6.333856 0.000000
vt -0.000000 6.333856 0.000000
vt -11.000000 6.840565 0.000000
vt -0.000000 6.840565 0.000000
vt -2.500000 -0.000000 0.000000
vt -2.448825 -0.503246 0.000000
vt -2.448825 0.503246 0.000000
vt -2.297395 0.985890 0.000000
vt -2.297395 -0.985890 0.000000
vt -2.051909 1.428171 0.000000
vt -2.051909 -1.428171 0.000000
vt -1.722417 1.811982 0.000000
vt -1.722417 -1.811982 0.000000
vt -1.322410 2.121611 0.000000
vt -0.868263 2.344380 0.000000
vt -0.378569 2.471171 0.000000
vt 0.126623 2.496791 0.000000
vt 0.626631 2.420193 0.000000
vt 1.100985 2.244511 0.000000
vt 1.530265 1.976939 0.000000
vt 1.896895 1.628431 0.000000
vt 2.185867 1.213255 0.000000
vt 2.385348 0.748408 0.000000
vt 2.487173 0.252921 0.000000
vt 2.487173 -0.252921 0.000000
vt 2.385348 -0.748408 0.000000
vt -1.322410 -2.121611 0.000000
vt 2.185867 -1.213255 0.000000
vt 1.896895 -1.628431 0.000000
vt 1.530265 -1.976939 0.000000
vt 1.100985 -2.244511 0.000000
vt -0.868263 -2.344380 0.000000
vt 0.626631 -2.420193 0.000000
vt -0.378569 -2.471171 0.000000
vt 0.126623 -2.496791 0.000000
vt 2.500000 -0.000000 0.000000
vt 2.448825 0.503246 0.000000
vt 2.448825 -0.503246 0.000000
vt 2.297395 0.985890 0.000000
vt 2.297395 -0.985890 0.000000
vt 2.051909 1.428171 0.000000
vt 2.051909 -1.428171 0.000000
vt 1.722417 1.811982 0.000000
vt 1.722417 -1.811982 0.000000
vt 1.322410 2.121611 0.000000
vt 0.868263 2.344380 0.000000
vt 0.378569 2.471171 0.000000
vt -0.126623 2.496791 0.000000
vt -0.626631 2.420193 0.000000
vt -1.100985 2.244511 0.000000
vt -1.530265 1.976939 0.000000
vt -1.896895 1.628431 0.000000
vt -2.185867 1.213255 0.000000
vt -2.385348 0.748408 0.000000
vt -2.487173 0.252921 0.000000
vt -2.487173 -0.252921 0.000000
vt -2.385348 -0.748408 0.000000
vt 1.322410 -2.121611 0.000000
vt -2.185867 -1.213255 0.000000
vt -1.896895 -1.628431 0.000000
vt -1.530265 -1.976939 0.000000
vt -1.100985 -2.244511 0.000000
vt 0.868263 -2.344380 0.000000
vt -0.626631 -2.420193 0.000000
vt 0.378569 -2.471171 0.000000
vt -0.126623 -2.496791 0.000000
vn -0.979530 0.201299 -0.000000
vn -0.979530 0.201299 -0.000000
vn -1.000000 0.000000 -0.000000
vn -1.000000 0.000000 -0.000000
vn -0.979530 -0.201299 0.000000
vn -0.979530 -0.201299 0.000000
vn -0.918958 -0.394356 0.000000
vn -0.918958 -0.394356 0.000000
vn -0.820763 -0.571268 0.000000
vn -0.820763 -0.571268 0.000000
vn -0.688967 -0.724793 0.000000
vn -0.688967 -0.724793 0.000000
vn -0.528964 -0.848644 0.000000
vn -0.528964 -0.848644 0.000000
vn -0.347305 -0.937752 0.000000
vn -0.347305 -0.937752 0.000000
vn -0.151428 -0.988468 0.000000
vn -0.151428 -0.988468 0.000000
vn 0.050649 -0.998717 -0.000000
vn 0.050649 -0.998717 -0.000000
vn 0.250653 -0.968077 -0.000000
vn 0.250653 -0.968077 -0.000000
vn 0.440394 -0.897805 -0.000000
vn 0.440394 -0.897805 -0.000000
vn 0.612106 -0.790776 -0.000000
vn 0.612106 -0.790776 -0.000000
vn 0.758758 -0.651372 -0.000000
vn 0.758758 -0.651372 -0.000000
vn 0.874347 -0.485302 -0.000000
vn 0.874347 -0.485302 -0.000000
vn 0.954139 -0.299363 -0.000000
vn 0.954139 -0.299363 -0.000000
vn 0.994869 -0.101168 -0.000000
vn 0.994869 -0.101168 -0.000000
vn 0.994869 0.101168 -0.000000
vn 0.994869 0.101168 -0.000000
vn 0.954139 0.299363 -0.000000
vn 0.954139 0.299363 -0.000000
vn 0.874347 0.485302 -0.000000
vn 0.874347 0.485302 -0.000000
vn 0.758758 0.651372 -0.000000
vn 0.758758 0.651372 -0.000000
vn 0.612106 0.790776 -0.000000
vn 0.612106 0.790776 -0.000000
vn 0.440394 0.897805 -0.000000
vn 0.440394 0.897805 -0.000000
vn 0.250653 0.968077 -0.000000
vn 0.250653 0.968077 -0.000000
vn 0.050649 0.998717 -0.000000
vn 0.050649 0.998717 -0.000000
vn -0.151428 0.988468 -0.000000
vn -0.151428 0.988468 -0.000000
vn -0.347305 0.937752 -0.000000
vn -0.347305 0.937752 -0.000000
vn -0.528964 0.848644 -0.000000
vn -0.528964 0.848644 -0.000000
vn -0.688967 0.724793 -0.000000
vn -0.688967 0.724793 -0.000000
vn -0.820763 0.571268 -0.000000
vn -0.820763 0.571268 -0.000000
vn -0.918958 0.394356 -0.000000
vn -0.918958 0.394356 -0.000000
vn 0.000000 0.000000 1.000000
vn 0.000000 0.000000 1.000000
vn 0.000000 0.000000 1.000000
vn 0.000000 0.000000 1.000000
vn 0.000000 0.000000 1.000000
vn 0.000000 0.000000 1.000000
vn 0.000000 0.000000 1.000000
vn 0.000000 0.000000 1.000000
vn 0.000000 0.000000 1.000000
vn 0.000000 0.000000 1.000000
vn 0.000000 0.000000 1.000000
vn 0.000000 0.000000 1.000000
vn 0.000000 0.000000 1.000000
vn 0.000000 0.000000 1.000000
vn 0.000000 0.000000 1.000000
vn 0.000000 0.000000 1.000000
vn 0.000000 0.000000 1.000000
vn 0.000000 0.000000 1.000000
vn 0.000000 0.000000 1.000000
vn 0.000000 0.000000 1.000000
vn 0.000000 0.000000 1.000000
vn 0.000000 0.000000 1.000000
vn 0.000000 0.000000 1.000000
vn 0.000000 0.000000 1.000000
vn 0.000000 0.000000 1.000000
vn 0.000000 0.000000 1.000000
vn 0.000000 0.000000 1.000000
vn 0.000000 0.000000 1.000000
vn 0.000000 0.000000 1.000000
vn 0.000000 0.000000 1.000000
vn 0.000000 0.000000 1.000000
vn -0.000000 -0.000000 -1.000000
vn -0.000000 -0.000000 -1.000000
vn -0.000000 -0.000000 -1.000000
vn -0.000000 -0.000000 -1.000000
vn -0.000000 -0.000000 -1.000000
vn -0.000000 -0.000000 -1.000000
vn -0.000000 -0.000000 -1.000000
vn -0.000000 -0.000000 -1.000000
vn -0.000000 -0.000000 -1.000000
vn -0.000000 -0.000000 -1.000000
vn -0.000000 -0.000000 -1.000000
vn -0.000000 -0.000000 -1.000000
vn -0.000000 -0.000000 -1.000000
vn -0.000000 -0.000000 -1.000000
vn -0.000000 -0.000000 -1.000000
vn -0.000000 -0.000000 -1.000000
vn -0.000000 -0.000000 -1.000000
vn -0.000000 -0.000000 -1.000000
vn -0.000000 -0.000000 -1.000000
vn -0.000000 -0.000000 -1.000000
vn -0.000000 -0.000000 -1.000000
vn -0.000000 -0.000000 -1.000000
vn -0.000000 -0.000000 -1.000000
vn -0.000000 -0.000000 -1.000000
vn -0.000000 -0.000000 -1.000000
vn -0.000000 -0.000000 -1.000000
vn -0.000000 -0.000000 -1.000000
vn -0.000000 -0.000000 -1.000000
vn -0.000000 -0.000000 -1.000000
vn -0.000000 -0.000000 -1.000000
vn -0.000000 -0.000000 -1.000000
usemtl Steel_-_Satin
f 2/1/1 62/2/2 1/3/3
f 1/3/3 62/2/2 32/4/4
f 1/5/3 32/6/4 31/7/5
f 31/7/5 32/6/4 33/8/6
f 31/7/5 33/8/6 30/9/7
f 30/9/7 33/8/6 34/10/8
f 30/9/7 34/10/8 29/11/9
f 29/11/9 34/10/8 35/12/10
f 29/11/9 35/12/10 28/13/11
f 28/13/11 35/12/10 36/14/12
f 28/13/11 36/14/12 27/15/13
f 27/15/13 36/14/12 37/16/14
f 27/15/13 37/16/14 26/17/15
f 26/17/15 37/16/14 38/18/16
f 26/17/15 38/18/16 25/19/17
f 25/19/17 38/18/16 39/20/18
f 25/19/17 39/20/18 24/21/19
f 24/21/19 39/20/18 40/22/20
f 24/21/19 40/22/20 23/23/21
f 23/23/21 40/22/20 41/24/22
f 23/23/21 41/24/22 22/25/23
f 22/25/23 41/24/22 42/26/24
f 22/25/23 42/26/24 21/27/25
f 21/27/25 42/26/24 43/28/26
f 21/27/25 43/28/26 20/29/27
f 20/29/27 43/28/26 44/30/28
f 20/29/27 44/30/28 19/31/29
f 19/31/29 44/30/28 45/32/30
f 19/31/29 45/32/30 18/33/31
f 18/33/31 45/32/30 46/34/32
f 18/33/31 46/34/32 17/35/33
f 17/35/33 46/34/32 47/36/34
f 17/35/33 47/36/34 16/37/35
f 16/37/35 47/36/34 48/38/36
f 16/37/35 48/38/36 15/39/37
f 15/39/37 48/38/36 49/40/38
f 15/39/37 49/40/38 14/41/39
f 14/41/39 49/40/38 50/42/40
f 14/41/39 50/42/40 13/43/41
f 13/43/41 50/42/40 51/44/42
f 13/43/41 51/44/42 12/45/43
f 12/45/43 51/44/42 52/46/44
f 12/45/43 52/46/44 11/47/45
f 11/47/45 52/46/44 53/48/46
f 11/47/45 53/48/46 10/49/47
f 10/49/47 53/48/46 54/50/48
f 10/49/47 54/50/48 9/51/49
f 9/51/49 54/50/48 55/52/50
f 9/51/49 55/52/50 8/53/51
f 8/53/51 55/52/50 56/54/52
f 8/53/51 56/54/52 7/55/53
f 7/55/53 56/54/52 57/56/54
f 7/55/53 57/56/54 6/57/55
f 6/57/55 57/56/54 58/58/56
f 6/57/55 58/58/56 5/59/57
f 5/59/57 58/58/56 59/60/58
f 5/59/57 59/60/58 4/61/59
f 4/61/59 59/60/58 60/62/60
f 4/61/59 60/62/60 3/63/61
f 3/63/61 60/62/60 61/64/62
f 3/63/61 61/64/62 2/1/1
f 2/1/1 61/64/62 62/2/2
f 1/65/63 31/66/64 2/67/65
f 2/67/65 31/66/64 3/68/66
f 3/68/66 31/66/64 30/69/67
f 3/68/66 30/69/67 4/70/68
f 4/70/68 30/69/67 29/71/69
f 4/70/68 29/71/69 5/72/70
f 5/72/70 29/71/69 28/73/71
f 5/72/70 28/73/71 6/74/72
f 6/74/72 28/73/71 7/75/73
f 7/75/73 28/73/71 8/76/74
f 8/76/74 28/73/71 9/77/75
f 9/77/75 28/73/71 10/78/76
f 10/78/76 28/73/71 11/79/77
f 11/79/77 28/73/71 12/80/78
f 12/80/78 28/73/71 13/81/79
f 13/81/79 28/73/71 14/82/80
f 14/82/80 28/73/71 15/83/81
f 15/83/81 28/73/71 16/84/82
f 16/84/82 28/73/71 17/85/83
f 17/85/83 28/73/71 18/86/84
f 18/86/84 28/73/71 27/87/85
f 18/86/84 27/87/85 19/88/86
f 19/88/86 27/87/85 20/89/87
f 20/89/87 27/87/85 21/90/88
f 21/90/88 27/87/85 22/91/89
f 22/91/89 27/87/85 26/92/90
f 22/91/89 26/92/90 23/93/91
f 23/93/91 26/92/90 25/94/92
f 23/93/91 25/94/92 24/95/93
f 32/96/94 62/97/95 33/98/96
f 33/98/96 62/97/95 61/99/97
f 33/98/96 61/99/97 34/100/98
f 34/100/98 61/99/97 60/101/99
f 34/100/98 60/101/99 35/102/100
f 35/102/100 60/101/99 59/103/101
f 35/102/100 59/103/101 36/104/102
f 36/104/102 59/103/101 58/105/103
f 36/104/102 58/105/103 57/106/104
f 57/106/104 56/107/105 36/104/102
f 36/104/102 56/107/105 55/108/106
f 36/104/102 55/108/106 54/109/107
f 54/109/107 53/110/108 36/104/102
f 36/104/102 53/110/108 52/111/109
f 36/104/102 52/111/109 51/112/110
f 51/112/110 50/113/111 36/104/102
f 36/104/102 50/113/111 49/114/112
f 36/104/102 49/114/112 48/115/113
f 48/115/113 47/116/114 36/104/102
f 36/104/102 47/116/114 46/117/115
f 36/104/102 46/117/115 37/118/116
f 37/118/116 46/117/115 45/119/117
f 37/118/116 45/119/117 44/120/118
f 44/120/118 43/121/119 37/118/116
f 37/118/116 43/121/119 42/122/120
f 37/118/116 42/122/120 38/123/121
f 38/123/121 42/122/120 41/124/122
f 38/123/121 41/124/122 39/125/123
f 39/125/123 41/124/122 40/126/124
# 62 vertices
# 126 texture params
# 124 normals
# 120 facets

# 1 groups
