# WaveFront *.obj file (generated by Autodesk ATF)

mtllib link cintura-hombro v2.mtl

g Body1

v -2.500000 -0.000000 12.050000
v -2.445369 0.519779 12.050000
v -2.283864 1.016842 12.050000
v -2.022542 1.469463 12.050000
v -1.672827 1.857862 12.050000
v -1.250000 2.165064 12.050000
v -0.772542 2.377641 12.050000
v -0.261321 2.486305 12.050000
v 0.261321 2.486305 12.050000
v 0.772542 2.377641 12.050000
v 1.250000 2.165064 12.050000
v 1.672827 1.857862 12.050000
v 2.022542 1.469463 12.050000
v 2.283864 1.016842 12.050000
v 2.445369 0.519779 12.050000
v 2.500000 0.000000 12.050000
v 2.445369 -0.519779 12.050000
v 2.283864 -1.016842 12.050000
v 2.022542 -1.469463 12.050000
v 1.672827 -1.857862 12.050000
v 1.250000 -2.165064 12.050000
v 0.772542 -2.377641 12.050000
v 0.261321 -2.486305 12.050000
v -0.261321 -2.486305 12.050000
v -0.772542 -2.377641 12.050000
v -1.250000 -2.165064 12.050000
v -1.672827 -1.857862 12.050000
v -2.022542 -1.469463 12.050000
v -2.283864 -1.016842 12.050000
v -2.445369 -0.519779 12.050000
v -2.500000 -0.000000 0.000000
v -2.445369 -0.519779 0.000000
v -2.283864 -1.016842 0.000000
v -2.022542 -1.469463 0.000000
v -1.672827 -1.857862 0.000000
v -1.250000 -2.165064 0.000000
v -0.772542 -2.377641 0.000000
v -0.261321 -2.486305 0.000000
v 0.261321 -2.486305 0.000000
v 0.772542 -2.377641 0.000000
v 1.250000 -2.165064 0.000000
v 1.672827 -1.857862 0.000000
v 2.022542 -1.469463 0.000000
v 2.283864 -1.016842 0.000000
v 2.445369 -0.519779 0.000000
v 2.500000 0.000000 0.000000
v 2.445369 0.519779 0.000000
v 2.283864 1.016842 0.000000
v 2.022542 1.469463 0.000000
v 1.672827 1.857862 0.000000
v 1.250000 2.165064 0.000000
v 0.772542 2.377641 0.000000
v 0.261321 2.486305 0.000000
v -0.261321 2.486305 0.000000
v -0.772542 2.377641 0.000000
v -1.250000 2.165064 0.000000
v -1.672827 1.857862 0.000000
v -2.022542 1.469463 0.000000
v -2.283864 1.016842 0.000000
v -2.445369 0.519779 0.000000
vt -12.050000 7.330383 0.000000
vt -0.000000 7.330383 0.000000
vt -12.050000 7.853982 0.000000
vt -0.000000 7.853982 0.000000
vt -12.050000 -7.853982 0.000000
vt -0.000000 -7.853982 0.000000
vt -12.050000 -7.330383 0.000000
vt -0.000000 -7.330383 0.000000
vt -12.050000 -6.806784 0.000000
vt -0.000000 -6.806784 0.000000
vt -12.050000 -6.283185 0.000000
vt -0.000000 -6.283185 0.000000
vt -12.050000 -5.759587 0.000000
vt -0.000000 -5.759587 0.000000
vt -12.050000 -5.235988 0.000000
vt -0.000000 -5.235988 0.000000
vt -12.050000 -4.712389 0.000000
vt -0.000000 -4.712389 0.000000
vt -12.050000 -4.188790 0.000000
vt -0.000000 -4.188790 0.000000
vt -12.050000 -3.665191 0.000000
vt -0.000000 -3.665191 0.000000
vt -12.050000 -3.141593 0.000000
vt -0.000000 -3.141593 0.000000
vt -12.050000 -2.617994 0.000000
vt -0.000000 -2.617994 0.000000
vt -12.050000 -2.094395 0.000000
vt -0.000000 -2.094395 0.000000
vt -12.050000 -1.570796 0.000000
vt -0.000000 -1.570796 0.000000
vt -12.050000 -1.047198 0.000000
vt -0.000000 -1.047198 0.000000
vt -12.050000 -0.523599 0.000000
vt -0.000000 -0.523599 0.000000
vt -12.050000 0.000000 0.000000
vt -0.000000 0.000000 0.000000
vt -12.050000 0.523599 0.000000
vt -0.000000 0.523599 0.000000
vt -12.050000 1.047198 0.000000
vt -0.000000 1.047198 0.000000
vt -12.050000 1.570796 0.000000
vt -0.000000 1.570796 0.000000
vt -12.050000 2.094395 0.000000
vt -0.000000 2.094395 0.000000
vt -12.050000 2.617994 0.000000
vt -0.000000 2.617994 0.000000
vt -12.050000 3.141593 0.000000
vt -0.000000 3.141593 0.000000
vt -12.050000 3.665191 0.000000
vt -0.000000 3.665191 0.000000
vt -12.050000 4.188790 0.000000
vt -0.000000 4.188790 0.000000
vt -12.050000 4.712389 0.000000
vt -0.000000 4.712389 0.000000
vt -12.050000 5.235988 0.000000
vt -0.000000 5.235988 0.000000
vt -12.050000 5.759587 0.000000
vt -0.000000 5.759587 0.000000
vt -12.050000 6.283185 0.000000
vt -0.000000 6.283185 0.000000
vt -12.050000 6.806784 0.000000
vt -0.000000 6.806784 0.000000
vt -2.445369 -0.519779 0.000000
vt 2.445369 -0.519779 0.000000
vt -2.500000 -0.000000 0.000000
vt 2.500000 0.000000 0.000000
vt -2.445369 0.519779 0.000000
vt 2.445369 0.519779 0.000000
vt -2.283864 1.016842 0.000000
vt 2.283864 1.016842 0.000000
vt -2.022542 1.469463 0.000000
vt 2.022542 1.469463 0.000000
vt -1.672827 1.857862 0.000000
vt 1.672827 1.857862 0.000000
vt -1.250000 2.165064 0.000000
vt 1.250000 2.165064 0.000000
vt -0.772542 2.377641 0.000000
vt 0.772542 2.377641 0.000000
vt -0.261321 2.486305 0.000000
vt 0.261321 2.486305 0.000000
vt 2.283864 -1.016842 0.000000
vt -2.283864 -1.016842 0.000000
vt 2.022542 -1.469463 0.000000
vt -2.022542 -1.469463 0.000000
vt 1.672827 -1.857862 0.000000
vt -1.672827 -1.857862 0.000000
vt 1.250000 -2.165064 0.000000
vt -1.250000 -2.165064 0.000000
vt 0.772542 -2.377641 0.000000
vt -0.772542 -2.377641 0.000000
vt 0.261321 -2.486305 0.000000
vt -0.261321 -2.486305 0.000000
vt 2.445369 0.519779 0.000000
vt -2.445369 0.519779 0.000000
vt 2.500000 -0.000000 0.000000
vt -2.500000 0.000000 0.000000
vt 2.445369 -0.519779 0.000000
vt -2.445369 -0.519779 0.000000
vt 2.283864 -1.016842 0.000000
vt -2.283864 -1.016842 0.000000
vt 2.022542 -1.469463 0.000000
vt -2.022542 -1.469463 0.000000
vt 1.672827 -1.857862 0.000000
vt -1.672827 -1.857862 0.000000
vt 1.250000 -2.165064 0.000000
vt -1.250000 -2.165064 0.000000
vt 0.772542 -2.377641 0.000000
vt -0.772542 -2.377641 0.000000
vt 0.261321 -2.486305 0.000000
vt -0.261321 -2.486305 0.000000
vt -2.283864 1.016842 0.000000
vt 2.283864 1.016842 0.000000
vt -2.022542 1.469463 0.000000
vt 2.022542 1.469463 0.000000
vt -1.672827 1.857862 0.000000
vt 1.672827 1.857862 0.000000
vt -1.250000 2.165064 0.000000
vt 1.250000 2.165064 0.000000
vt -0.772542 2.377641 0.000000
vt 0.772542 2.377641 0.000000
vt -0.261321 2.486305 0.000000
vt 0.261321 2.486305 0.000000
vn -0.978148 0.207912 -0.000000
vn -0.978148 0.207912 -0.000000
vn -1.000000 0.000000 -0.000000
vn -1.000000 0.000000 -0.000000
vn -0.978148 -0.207912 0.000000
vn -0.978148 -0.207912 0.000000
vn -0.913545 -0.406737 0.000000
vn -0.913545 -0.406737 0.000000
vn -0.809017 -0.587785 0.000000
vn -0.809017 -0.587785 0.000000
vn -0.669131 -0.743145 0.000000
vn -0.669131 -0.743145 0.000000
vn -0.500000 -0.866025 0.000000
vn -0.500000 -0.866025 0.000000
vn -0.309017 -0.951057 0.000000
vn -0.309017 -0.951057 0.000000
vn -0.104528 -0.994522 0.000000
vn -0.104528 -0.994522 0.000000
vn 0.104528 -0.994522 -0.000000
vn 0.104528 -0.994522 -0.000000
vn 0.309017 -0.951057 -0.000000
vn 0.309017 -0.951057 -0.000000
vn 0.500000 -0.866025 -0.000000
vn 0.500000 -0.866025 -0.000000
vn 0.669131 -0.743145 -0.000000
vn 0.669131 -0.743145 -0.000000
vn 0.809017 -0.587785 -0.000000
vn 0.809017 -0.587785 -0.000000
vn 0.913545 -0.406737 -0.000000
vn 0.913545 -0.406737 -0.000000
vn 0.978148 -0.207912 -0.000000
vn 0.978148 -0.207912 -0.000000
vn 1.000000 -0.000000 -0.000000
vn 1.000000 -0.000000 -0.000000
vn 0.978148 0.207912 -0.000000
vn 0.978148 0.207912 -0.000000
vn 0.913545 0.406737 -0.000000
vn 0.913545 0.406737 -0.000000
vn 0.809017 0.587785 -0.000000
vn 0.809017 0.587785 -0.000000
vn 0.669131 0.743145 -0.000000
vn 0.669131 0.743145 -0.000000
vn 0.500000 0.866025 -0.000000
vn 0.500000 0.866025 -0.000000
vn 0.309017 0.951057 -0.000000
vn 0.309017 0.951057 -0.000000
vn 0.104528 0.994522 -0.000000
vn 0.104528 0.994522 -0.000000
vn -0.104528 0.994522 -0.000000
vn -0.104528 0.994522 -0.000000
vn -0.309017 0.951057 -0.000000
vn -0.309017 0.951057 -0.000000
vn -0.500000 0.866025 -0.000000
vn -0.500000 0.866025 -0.000000
vn -0.669131 0.743145 -0.000000
vn -0.669131 0.743145 -0.000000
vn -0.809017 0.587785 -0.000000
vn -0.809017 0.587785 -0.000000
vn -0.913545 0.406737 -0.000000
vn -0.913545 0.406737 -0.000000
vn 0.000000 0.000000 1.000000
vn 0.000000 0.000000 1.000000
vn 0.000000 0.000000 1.000000
vn 0.000000 0.000000 1.000000
vn 0.000000 0.000000 1.000000
vn 0.000000 0.000000 1.000000
vn 0.000000 0.000000 1.000000
vn 0.000000 0.000000 1.000000
vn 0.000000 0.000000 1.000000
vn 0.000000 0.000000 1.000000
vn 0.000000 0.000000 1.000000
vn 0.000000 0.000000 1.000000
vn 0.000000 0.000000 1.000000
vn 0.000000 0.000000 1.000000
vn 0.000000 0.000000 1.000000
vn 0.000000 0.000000 1.000000
vn 0.000000 0.000000 1.000000
vn 0.000000 0.000000 1.000000
vn 0.000000 0.000000 1.000000
vn 0.000000 0.000000 1.000000
vn 0.000000 0.000000 1.000000
vn 0.000000 0.000000 1.000000
vn 0.000000 0.000000 1.000000
vn 0.000000 0.000000 1.000000
vn 0.000000 0.000000 1.000000
vn 0.000000 0.000000 1.000000
vn 0.000000 0.000000 1.000000
vn 0.000000 0.000000 1.000000
vn 0.000000 0.000000 1.000000
vn 0.000000 0.000000 1.000000
vn -0.000000 -0.000000 -1.000000
vn -0.000000 -0.000000 -1.000000
vn -0.000000 -0.000000 -1.000000
vn -0.000000 -0.000000 -1.000000
vn -0.000000 -0.000000 -1.000000
vn -0.000000 -0.000000 -1.000000
vn -0.000000 -0.000000 -1.000000
vn -0.000000 -0.000000 -1.000000
vn -0.000000 -0.000000 -1.000000
vn -0.000000 -0.000000 -1.000000
vn -0.000000 -0.000000 -1.000000
vn -0.000000 -0.000000 -1.000000
vn -0.000000 -0.000000 -1.000000
vn -0.000000 -0.000000 -1.000000
vn -0.000000 -0.000000 -1.000000
vn -0.000000 -0.000000 -1.000000
vn -0.000000 -0.000000 -1.000000
vn -0.000000 -0.000000 -1.000000
vn -0.000000 -0.000000 -1.000000
vn -0.000000 -0.000000 -1.000000
vn -0.000000 -0.000000 -1.000000
vn -0.000000 -0.000000 -1.000000
vn -0.000000 -0.000000 -1.000000
vn -0.000000 -0.000000 -1.000000
vn -0.000000 -0.000000 -1.000000
vn -0.000000 -0.000000 -1.000000
vn -0.000000 -0.000000 -1.000000
vn -0.000000 -0.000000 -1.000000
vn -0.000000 -0.000000 -1.000000
vn -0.000000 -0.000000 -1.000000
usemtl Steel_-_Satin
f 2/1/1 60/2/2 1/3/3
f 1/3/3 60/2/2 31/4/4
f 1/5/3 31/6/4 30/7/5
f 30/7/5 31/6/4 32/8/6
f 30/7/5 32/8/6 29/9/7
f 29/9/7 32/8/6 33/10/8
f 29/9/7 33/10/8 28/11/9
f 28/11/9 33/10/8 34/12/10
f 28/11/9 34/12/10 27/13/11
f 27/13/11 34/12/10 35/14/12
f 27/13/11 35/14/12 26/15/13
f 26/15/13 35/14/12 36/16/14
f 26/15/13 36/16/14 25/17/15
f 25/17/15 36/16/14 37/18/16
f 25/17/15 37/18/16 24/19/17
f 24/19/17 37/18/16 38/20/18
f 24/19/17 38/20/18 23/21/19
f 23/21/19 38/20/18 39/22/20
f 23/21/19 39/22/20 22/23/21
f 22/23/21 39/22/20 40/24/22
f 22/23/21 40/24/22 21/25/23
f 21/25/23 40/24/22 41/26/24
f 21/25/23 41/26/24 20/27/25
f 20/27/25 41/26/24 42/28/26
f 20/27/25 42/28/26 19/29/27
f 19/29/27 42/28/26 43/30/28
f 19/29/27 43/30/28 18/31/29
f 18/31/29 43/30/28 44/32/30
f 18/31/29 44/32/30 17/33/31
f 17/33/31 44/32/30 45/34/32
f 17/33/31 45/34/32 16/35/33
f 16/35/33 45/34/32 46/36/34
f 16/35/33 46/36/34 15/37/35
f 15/37/35 46/36/34 47/38/36
f 15/37/35 47/38/36 14/39/37
f 14/39/37 47/38/36 48/40/38
f 14/39/37 48/40/38 13/41/39
f 13/41/39 48/40/38 49/42/40
f 13/41/39 49/42/40 12/43/41
f 12/43/41 49/42/40 50/44/42
f 12/43/41 50/44/42 11/45/43
f 11/45/43 50/44/42 51/46/44
f 11/45/43 51/46/44 10/47/45
f 10/47/45 51/46/44 52/48/46
f 10/47/45 52/48/46 9/49/47
f 9/49/47 52/48/46 53/50/48
f 9/49/47 53/50/48 8/51/49
f 8/51/49 53/50/48 54/52/50
f 8/51/49 54/52/50 7/53/51
f 7/53/51 54/52/50 55/54/52
f 7/53/51 55/54/52 6/55/53
f 6/55/53 55/54/52 56/56/54
f 6/55/53 56/56/54 5/57/55
f 5/57/55 56/56/54 57/58/56
f 5/57/55 57/58/56 4/59/57
f 4/59/57 57/58/56 58/60/58
f 4/59/57 58/60/58 3/61/59
f 3/61/59 58/60/58 59/62/60
f 3/61/59 59/62/60 2/1/1
f 2/1/1 59/62/60 60/2/2
f 30/63/61 17/64/62 1/65/63
f 1/65/63 17/64/62 16/66/64
f 1/65/63 16/66/64 2/67/65
f 2/67/65 16/66/64 15/68/66
f 2/67/65 15/68/66 3/69/67
f 3/69/67 15/68/66 14/70/68
f 3/69/67 14/70/68 4/71/69
f 4/71/69 14/70/68 13/72/70
f 4/71/69 13/72/70 5/73/71
f 5/73/71 13/72/70 12/74/72
f 5/73/71 12/74/72 6/75/73
f 6/75/73 12/74/72 11/76/74
f 6/75/73 11/76/74 7/77/75
f 7/77/75 11/76/74 10/78/76
f 7/77/75 10/78/76 8/79/77
f 8/79/77 10/78/76 9/80/78
f 17/64/62 30/63/61 18/81/79
f 18/81/79 30/63/61 29/82/80
f 18/81/79 29/82/80 19/83/81
f 19/83/81 29/82/80 28/84/82
f 19/83/81 28/84/82 20/85/83
f 20/85/83 28/84/82 27/86/84
f 20/85/83 27/86/84 21/87/85
f 21/87/85 27/86/84 26/88/86
f 21/87/85 26/88/86 22/89/87
f 22/89/87 26/88/86 25/90/88
f 22/89/87 25/90/88 23/91/89
f 23/91/89 25/90/88 24/92/90
f 60/93/91 47/94/92 31/95/93
f 31/95/93 47/94/92 46/96/94
f 31/95/93 46/96/94 32/97/95
f 32/97/95 46/96/94 45/98/96
f 32/97/95 45/98/96 33/99/97
f 33/99/97 45/98/96 44/100/98
f 33/99/97 44/100/98 34/101/99
f 34/101/99 44/100/98 43/102/100
f 34/101/99 43/102/100 35/103/101
f 35/103/101 43/102/100 42/104/102
f 35/103/101 42/104/102 36/105/103
f 36/105/103 42/104/102 41/106/104
f 36/105/103 41/106/104 37/107/105
f 37/107/105 41/106/104 40/108/106
f 37/107/105 40/108/106 38/109/107
f 38/109/107 40/108/106 39/110/108
f 47/94/92 60/93/91 48/111/109
f 48/111/109 60/93/91 59/112/110
f 48/111/109 59/112/110 49/113/111
f 49/113/111 59/112/110 58/114/112
f 49/113/111 58/114/112 50/115/113
f 50/115/113 58/114/112 57/116/114
f 50/115/113 57/116/114 51/117/115
f 51/117/115 57/116/114 56/118/116
f 51/117/115 56/118/116 52/119/117
f 52/119/117 56/118/116 55/120/118
f 52/119/117 55/120/118 53/121/119
f 53/121/119 55/120/118 54/122/120
# 60 vertices
# 122 texture params
# 120 normals
# 116 facets

# 1 groups
